<svg width="44" height="44" viewBox="0 0 44 44" fill="none" xmlns="http://www.w3.org/2000/svg">
<g id="Group 151">
<path id="Vector" d="M36.2599 15.0172H28.9091V7.71553C28.9091 5.87929 28.175 4.11826 26.8683 2.81985C25.5617 1.52143 23.7894 0.791992 21.9414 0.791992C20.0935 0.791992 18.3212 1.52143 17.0145 2.81985C15.7078 4.11826 14.9738 5.87929 14.9738 7.71553V15.0172H7.62296C5.77523 15.0179 4.00336 15.7475 2.69681 17.0458C1.39027 18.344 0.655955 20.1047 0.655273 21.9407C0.655955 23.7767 1.39027 25.5374 2.69681 26.8356C4.00336 28.1339 5.77523 28.8636 7.62296 28.8642H14.9738V36.1659C14.9738 38.0021 15.7078 39.7632 17.0145 41.0616C18.3212 42.36 20.0935 43.0894 21.9414 43.0894C23.7894 43.0894 25.5617 42.36 26.8683 41.0616C28.175 39.7632 28.9091 38.0021 28.9091 36.1659V28.8694H36.2599C38.1077 28.8687 39.8795 28.139 41.1861 26.8407C42.4926 25.5425 43.2269 23.7818 43.2276 21.9458C43.228 21.0363 43.048 20.1356 42.698 19.2951C42.348 18.4547 41.8349 17.691 41.1879 17.0476C40.5409 16.4042 39.7727 15.8937 38.9271 15.5454C38.0816 15.197 37.1753 15.0175 36.2599 15.0172Z" fill="#F5F5F5"/>
<path id="Vector_2" d="M21.9419 43.884C19.8834 43.8813 17.91 43.0675 16.4544 41.6212C14.9989 40.1748 14.1799 38.2139 14.1772 36.1684V29.6562H7.62345C5.58892 29.6194 3.65023 28.7905 2.22451 27.3478C0.798797 25.9051 0 23.9639 0 21.942C0 19.92 0.798797 17.9788 2.22451 16.5361C3.65023 15.0934 5.58892 14.2645 7.62345 14.2277H14.1772V7.71552C14.1772 5.66924 14.9953 3.70677 16.4514 2.25982C17.9076 0.812883 19.8826 0 21.9419 0C24.0013 0 25.9763 0.812883 27.4324 2.25982C28.8886 3.70677 29.7067 5.66924 29.7067 7.71552V14.2277H36.2604C38.2949 14.2645 40.2336 15.0934 41.6593 16.5361C43.0851 17.9788 43.8839 19.92 43.8839 21.942C43.8839 23.9639 43.0851 25.9051 41.6593 27.3478C40.2336 28.7905 38.2949 29.6194 36.2604 29.6562H29.7067V36.1684C29.7039 38.2139 28.885 40.1748 27.4294 41.6212C25.9738 43.0675 24.0004 43.8813 21.9419 43.884ZM7.62345 15.8092C5.98689 15.8092 4.41736 16.4552 3.26014 17.605C2.10292 18.7549 1.4528 20.3145 1.4528 21.9407C1.4528 23.5669 2.10292 25.1265 3.26014 26.2764C4.41736 27.4262 5.98689 28.0722 7.62345 28.0722H15.7713V36.1659C15.7713 37.7921 16.4214 39.3516 17.5786 40.5015C18.7358 41.6514 20.3054 42.2974 21.9419 42.2974C23.5785 42.2974 25.148 41.6514 26.3052 40.5015C27.4625 39.3516 28.1126 37.7921 28.1126 36.1659V28.0748H36.2604C37.897 28.0748 39.4665 27.4288 40.6237 26.2789C41.7809 25.129 42.4311 23.5694 42.4311 21.9433C42.4311 20.3171 41.7809 18.7575 40.6237 17.6076C39.4665 16.4577 37.897 15.8117 36.2604 15.8117H28.1126V7.71552C28.1126 6.08934 27.4625 4.52976 26.3052 3.37987C25.148 2.22998 23.5785 1.58398 21.9419 1.58398C20.3054 1.58398 18.7358 2.22998 17.5786 3.37987C16.4214 4.52976 15.7713 6.08934 15.7713 7.71552V15.8092H7.62345Z" fill="#00395D"/>
<path id="Vector_3" d="M21.893 15.0176C20.0679 15.0524 18.3294 15.7973 17.0511 17.0922C15.7728 18.387 15.0566 20.1285 15.0566 21.9424C15.0566 23.7563 15.7728 25.4978 17.0511 26.7926C18.3294 28.0875 20.0679 28.8324 21.893 28.8672H28.9096V15.0176H21.893Z" fill="#F5F5F5"/>
<path id="Vector_4" d="M43.2286 21.9411C43.228 20.1051 42.4936 18.3445 41.1871 17.0462C39.8805 15.7479 38.1087 15.0183 36.2609 15.0176H28.9102V28.8698H36.2609C37.1763 28.8694 38.0826 28.6899 38.9281 28.3416C39.7737 27.9932 40.5419 27.4827 41.1889 26.8393C41.8359 26.196 42.3491 25.4322 42.699 24.5918C43.049 23.7514 43.229 22.8507 43.2286 21.9411Z" fill="#F67575"/>
<path id="Vector_5" d="M36.2607 14.2278H21.8933C20.8619 14.2092 19.8371 14.3949 18.8788 14.7742C17.9204 15.1535 17.0478 15.7188 16.3117 16.437C15.5757 17.1552 14.9911 18.0119 14.592 18.9571C14.1929 19.9023 13.9873 20.9171 13.9873 21.9421C13.9873 22.9671 14.1929 23.9819 14.592 24.9271C14.9911 25.8723 15.5757 26.729 16.3117 27.4472C17.0478 28.1654 17.9204 28.7306 18.8788 29.1099C19.8371 29.4892 20.8619 29.675 21.8933 29.6563H36.2607C38.2952 29.6195 40.2339 28.7906 41.6596 27.3479C43.0853 25.9052 43.8841 23.9641 43.8841 21.9421C43.8841 19.9201 43.0853 17.9789 41.6596 16.5363C40.2339 15.0936 38.2952 14.2646 36.2607 14.2278ZM15.7201 21.9408C15.7201 20.3146 16.3702 18.755 17.5274 17.6052C18.6847 16.4553 20.2542 15.8093 21.8908 15.8093H28.1128V28.0724H21.8933C21.0828 28.0727 20.2801 27.9143 19.5311 27.6064C18.7822 27.2984 18.1016 26.8468 17.5284 26.2774C16.9551 25.708 16.5003 25.0319 16.1901 24.2878C15.8798 23.5438 15.7201 22.7462 15.7201 21.9408ZM36.2607 28.0724H29.7069V15.8093H36.2607C37.8972 15.8093 39.4667 16.4553 40.624 17.6052C41.7812 18.755 42.4313 20.3146 42.4313 21.9408C42.4313 23.567 41.7812 25.1266 40.624 26.2765C39.4667 27.4264 37.8972 28.0724 36.2607 28.0724Z" fill="#00395D"/>
</g>
</svg>
