<svg width="43" height="43" viewBox="0 0 43 43" fill="none" xmlns="http://www.w3.org/2000/svg">
<g id="Group 160">
<path id="Vector" d="M8.23036 21.5572C6.53676 23.317 5.59908 25.6688 5.61881 28.1073C5.63855 30.5458 6.61413 32.8763 8.33592 34.5981C10.0577 36.3199 12.3883 37.2955 14.8268 37.3152C17.2653 37.335 19.6171 36.3973 21.3768 34.7037L28.0149 28.0656L14.8685 14.9191L8.23036 21.5572Z" fill="#00395D"/>
<path id="Vector_2" d="M34.9864 7.94623C33.2429 6.20406 30.877 5.22753 28.4085 5.23125C25.9401 5.23498 23.5712 6.21866 21.8225 7.9661L14.8682 14.9204L28.017 28.0693L34.9713 21.115C35.837 20.2487 36.5241 19.2209 36.9933 18.0902C37.4626 16.9596 37.7048 15.7483 37.7062 14.5255C37.7076 13.3026 37.4681 12.0922 37.0014 10.9634C36.5348 9.8345 35.8501 8.80928 34.9864 7.94623V7.94623Z" fill="#F67575"/>
<path id="Vector_3" d="M21.0732 7.21436L7.48081 20.8068C6.48734 21.7648 5.69413 22.9107 5.14752 24.1774C4.60091 25.4441 4.31185 26.8062 4.29723 28.1843C4.28261 29.5623 4.54273 30.9287 5.06238 32.2035C5.58203 33.4783 6.3508 34.636 7.32379 35.6089C8.29678 36.5819 9.45448 37.3507 10.7293 37.8704C12.0041 38.39 13.3704 38.6501 14.7484 38.6355C16.1265 38.6209 17.4887 38.3318 18.7554 37.7852C20.0221 37.2386 21.1679 36.4454 22.126 35.4519L35.7184 21.8595C37.6082 19.8998 38.6555 17.2788 38.6349 14.5606C38.6143 11.8423 37.5274 9.24398 35.6081 7.32467C33.6887 5.40536 31.0904 4.31847 28.3722 4.29784C25.6539 4.27721 23.0329 5.3245 21.0732 7.21436V7.21436ZM8.96192 33.9684C7.4183 32.4248 6.55295 30.3293 6.55625 28.143C6.55955 25.9567 7.43123 23.8586 8.97952 22.3103L14.866 16.4239L26.5064 28.0643L20.6224 33.9484C19.8559 34.7155 18.9462 35.3246 17.9453 35.7408C16.9444 36.157 15.8719 36.3722 14.789 36.3741C13.7062 36.3759 12.6342 36.1644 11.6344 35.7516C10.6346 35.3389 9.72645 34.7329 8.96192 33.9684ZM34.2148 20.356L28.0146 26.5562L16.3741 14.9158L22.5744 8.7155C24.1226 7.16721 26.2207 6.29554 28.407 6.29224C30.5933 6.28894 32.6888 7.15428 34.2324 8.6979C35.776 10.2415 36.6414 12.337 36.6381 14.5233C36.6348 16.7096 35.7631 18.8077 34.2148 20.356Z" fill="#F5F5F5"/>
</g>
</svg>
